<mxfile host="app.diagrams.net" modified="2023-07-28T09:03:46.494Z" agent="Mozilla/5.0 (Windows NT 10.0; Win64; x64) AppleWebKit/537.36 (KHTML, like Gecko) Chrome/115.0.0.0 Safari/537.36" etag="2uKTjStUbu9PJFj0OjjK" version="21.6.5" type="device">
  <diagram name="Trang-1" id="Tb80Q38PvZupfO_BGCVm">
    <mxGraphModel dx="905" dy="447" grid="1" gridSize="10" guides="1" tooltips="1" connect="1" arrows="1" fold="1" page="1" pageScale="1" pageWidth="1169" pageHeight="827" math="0" shadow="0">
      <root>
        <mxCell id="0" />
        <mxCell id="1" parent="0" />
        <mxCell id="NhvpQHrJjKfjEpbAgzBq-5" value="&lt;i&gt;&amp;lt;&amp;lt;abstract&amp;gt;&amp;gt;&lt;br&gt;HangHoa&lt;/i&gt;" style="swimlane;fontStyle=1;align=center;verticalAlign=top;childLayout=stackLayout;horizontal=1;startSize=40;horizontalStack=0;resizeParent=1;resizeParentMax=0;resizeLast=0;collapsible=1;marginBottom=0;whiteSpace=wrap;html=1;" vertex="1" parent="1">
          <mxGeometry x="1483" y="150" width="160" height="148" as="geometry" />
        </mxCell>
        <mxCell id="NhvpQHrJjKfjEpbAgzBq-6" value="+ maHang: int&lt;br&gt;+ tenHang: String&lt;br&gt;+ soluongTon: int&lt;br&gt;+ donGia: int" style="text;strokeColor=none;fillColor=none;align=left;verticalAlign=top;spacingLeft=4;spacingRight=4;overflow=hidden;rotatable=0;points=[[0,0.5],[1,0.5]];portConstraint=eastwest;whiteSpace=wrap;html=1;" vertex="1" parent="NhvpQHrJjKfjEpbAgzBq-5">
          <mxGeometry y="40" width="160" height="74" as="geometry" />
        </mxCell>
        <mxCell id="NhvpQHrJjKfjEpbAgzBq-7" value="" style="line;strokeWidth=1;fillColor=none;align=left;verticalAlign=middle;spacingTop=-1;spacingLeft=3;spacingRight=3;rotatable=0;labelPosition=right;points=[];portConstraint=eastwest;strokeColor=inherit;" vertex="1" parent="NhvpQHrJjKfjEpbAgzBq-5">
          <mxGeometry y="114" width="160" height="8" as="geometry" />
        </mxCell>
        <mxCell id="NhvpQHrJjKfjEpbAgzBq-8" value="&lt;i&gt;+ tinhVAT(): void&lt;/i&gt;" style="text;strokeColor=none;fillColor=none;align=left;verticalAlign=top;spacingLeft=4;spacingRight=4;overflow=hidden;rotatable=0;points=[[0,0.5],[1,0.5]];portConstraint=eastwest;whiteSpace=wrap;html=1;" vertex="1" parent="NhvpQHrJjKfjEpbAgzBq-5">
          <mxGeometry y="122" width="160" height="26" as="geometry" />
        </mxCell>
        <mxCell id="NhvpQHrJjKfjEpbAgzBq-14" style="rounded=0;orthogonalLoop=1;jettySize=auto;html=1;" edge="1" parent="1" source="NhvpQHrJjKfjEpbAgzBq-9" target="NhvpQHrJjKfjEpbAgzBq-13">
          <mxGeometry relative="1" as="geometry" />
        </mxCell>
        <mxCell id="NhvpQHrJjKfjEpbAgzBq-18" style="rounded=0;orthogonalLoop=1;jettySize=auto;html=1;" edge="1" parent="1" source="NhvpQHrJjKfjEpbAgzBq-9" target="NhvpQHrJjKfjEpbAgzBq-17">
          <mxGeometry relative="1" as="geometry" />
        </mxCell>
        <mxCell id="NhvpQHrJjKfjEpbAgzBq-20" style="rounded=0;orthogonalLoop=1;jettySize=auto;html=1;" edge="1" parent="1" source="NhvpQHrJjKfjEpbAgzBq-9" target="NhvpQHrJjKfjEpbAgzBq-19">
          <mxGeometry relative="1" as="geometry" />
        </mxCell>
        <mxCell id="NhvpQHrJjKfjEpbAgzBq-24" style="rounded=0;orthogonalLoop=1;jettySize=auto;html=1;" edge="1" parent="1" source="NhvpQHrJjKfjEpbAgzBq-9" target="NhvpQHrJjKfjEpbAgzBq-23">
          <mxGeometry relative="1" as="geometry" />
        </mxCell>
        <mxCell id="NhvpQHrJjKfjEpbAgzBq-25" style="rounded=0;orthogonalLoop=1;jettySize=auto;html=1;" edge="1" parent="1" source="NhvpQHrJjKfjEpbAgzBq-9" target="NhvpQHrJjKfjEpbAgzBq-22">
          <mxGeometry relative="1" as="geometry" />
        </mxCell>
        <mxCell id="NhvpQHrJjKfjEpbAgzBq-26" style="rounded=0;orthogonalLoop=1;jettySize=auto;html=1;" edge="1" parent="1" source="NhvpQHrJjKfjEpbAgzBq-9" target="NhvpQHrJjKfjEpbAgzBq-21">
          <mxGeometry relative="1" as="geometry" />
        </mxCell>
        <mxCell id="NhvpQHrJjKfjEpbAgzBq-9" value="Entity Object&lt;br&gt;Hàng thực phẩm" style="ellipse;shape=umlEntity;whiteSpace=wrap;html=1;" vertex="1" parent="1">
          <mxGeometry x="830" y="334" width="80" height="80" as="geometry" />
        </mxCell>
        <mxCell id="NhvpQHrJjKfjEpbAgzBq-10" value="Entity Object&lt;br&gt;Hàng&amp;nbsp;sành&lt;br/&gt;sứ&lt;b&gt;&amp;nbsp;&lt;/b&gt;" style="ellipse;shape=umlEntity;whiteSpace=wrap;html=1;" vertex="1" parent="1">
          <mxGeometry x="340" y="390" width="80" height="80" as="geometry" />
        </mxCell>
        <mxCell id="NhvpQHrJjKfjEpbAgzBq-11" value="Entity Object&lt;br&gt;Hàng&lt;br/&gt;điện máy" style="ellipse;shape=umlEntity;whiteSpace=wrap;html=1;" vertex="1" parent="1">
          <mxGeometry x="260" y="490" width="80" height="80" as="geometry" />
        </mxCell>
        <mxCell id="NhvpQHrJjKfjEpbAgzBq-13" value="mã&lt;br/&gt;hàng&amp;nbsp;" style="ellipse;whiteSpace=wrap;html=1;" vertex="1" parent="1">
          <mxGeometry x="640" y="470" width="140" height="70" as="geometry" />
        </mxCell>
        <mxCell id="NhvpQHrJjKfjEpbAgzBq-15" value="tên&lt;br/&gt;hàng" style="ellipse;whiteSpace=wrap;html=1;" vertex="1" parent="1">
          <mxGeometry x="800" y="470" width="140" height="70" as="geometry" />
        </mxCell>
        <mxCell id="NhvpQHrJjKfjEpbAgzBq-16" style="rounded=0;orthogonalLoop=1;jettySize=auto;html=1;" edge="1" target="NhvpQHrJjKfjEpbAgzBq-15" parent="1" source="NhvpQHrJjKfjEpbAgzBq-9">
          <mxGeometry relative="1" as="geometry">
            <mxPoint x="952.7372506618312" y="379.3762333330134" as="sourcePoint" />
          </mxGeometry>
        </mxCell>
        <mxCell id="NhvpQHrJjKfjEpbAgzBq-17" value="số&lt;br/&gt;lượng tồn&amp;nbsp;" style="ellipse;whiteSpace=wrap;html=1;" vertex="1" parent="1">
          <mxGeometry x="940" y="470" width="140" height="70" as="geometry" />
        </mxCell>
        <mxCell id="NhvpQHrJjKfjEpbAgzBq-19" value="Đơn giá" style="ellipse;whiteSpace=wrap;html=1;" vertex="1" parent="1">
          <mxGeometry x="1029" y="400" width="140" height="70" as="geometry" />
        </mxCell>
        <mxCell id="NhvpQHrJjKfjEpbAgzBq-21" value="ngày&lt;br/&gt;sản xuất" style="ellipse;whiteSpace=wrap;html=1;fillColor=#dae8fc;strokeColor=#6c8ebf;" vertex="1" parent="1">
          <mxGeometry x="1020" y="325" width="140" height="70" as="geometry" />
        </mxCell>
        <mxCell id="NhvpQHrJjKfjEpbAgzBq-22" value="ngày&lt;br/&gt;hết hạn&amp;nbsp;" style="ellipse;whiteSpace=wrap;html=1;fillColor=#dae8fc;strokeColor=#6c8ebf;" vertex="1" parent="1">
          <mxGeometry x="1010" y="250" width="140" height="70" as="geometry" />
        </mxCell>
        <mxCell id="NhvpQHrJjKfjEpbAgzBq-23" value="nhà&lt;br/&gt;cung cấp" style="ellipse;whiteSpace=wrap;html=1;fillColor=#dae8fc;strokeColor=#6c8ebf;" vertex="1" parent="1">
          <mxGeometry x="770" y="232" width="140" height="70" as="geometry" />
        </mxCell>
        <mxCell id="NhvpQHrJjKfjEpbAgzBq-27" style="rounded=0;orthogonalLoop=1;jettySize=auto;html=1;" edge="1" parent="1" source="NhvpQHrJjKfjEpbAgzBq-33" target="NhvpQHrJjKfjEpbAgzBq-34">
          <mxGeometry relative="1" as="geometry" />
        </mxCell>
        <mxCell id="NhvpQHrJjKfjEpbAgzBq-28" style="rounded=0;orthogonalLoop=1;jettySize=auto;html=1;" edge="1" parent="1" source="NhvpQHrJjKfjEpbAgzBq-33" target="NhvpQHrJjKfjEpbAgzBq-37">
          <mxGeometry relative="1" as="geometry" />
        </mxCell>
        <mxCell id="NhvpQHrJjKfjEpbAgzBq-29" style="rounded=0;orthogonalLoop=1;jettySize=auto;html=1;" edge="1" parent="1" source="NhvpQHrJjKfjEpbAgzBq-33" target="NhvpQHrJjKfjEpbAgzBq-38">
          <mxGeometry relative="1" as="geometry" />
        </mxCell>
        <mxCell id="NhvpQHrJjKfjEpbAgzBq-30" style="rounded=0;orthogonalLoop=1;jettySize=auto;html=1;" edge="1" parent="1" source="NhvpQHrJjKfjEpbAgzBq-33" target="NhvpQHrJjKfjEpbAgzBq-41">
          <mxGeometry relative="1" as="geometry" />
        </mxCell>
        <mxCell id="NhvpQHrJjKfjEpbAgzBq-31" style="rounded=0;orthogonalLoop=1;jettySize=auto;html=1;" edge="1" parent="1" source="NhvpQHrJjKfjEpbAgzBq-33" target="NhvpQHrJjKfjEpbAgzBq-40">
          <mxGeometry relative="1" as="geometry" />
        </mxCell>
        <mxCell id="NhvpQHrJjKfjEpbAgzBq-33" value="Entity Object&lt;br&gt;Hàng sành sứ" style="ellipse;shape=umlEntity;whiteSpace=wrap;html=1;" vertex="1" parent="1">
          <mxGeometry x="830" y="732" width="80" height="80" as="geometry" />
        </mxCell>
        <mxCell id="NhvpQHrJjKfjEpbAgzBq-34" value="mã&lt;br/&gt;hàng&amp;nbsp;" style="ellipse;whiteSpace=wrap;html=1;" vertex="1" parent="1">
          <mxGeometry x="640" y="868" width="140" height="70" as="geometry" />
        </mxCell>
        <mxCell id="NhvpQHrJjKfjEpbAgzBq-35" value="tên&lt;br/&gt;hàng" style="ellipse;whiteSpace=wrap;html=1;" vertex="1" parent="1">
          <mxGeometry x="800" y="868" width="140" height="70" as="geometry" />
        </mxCell>
        <mxCell id="NhvpQHrJjKfjEpbAgzBq-36" style="rounded=0;orthogonalLoop=1;jettySize=auto;html=1;" edge="1" parent="1" source="NhvpQHrJjKfjEpbAgzBq-33" target="NhvpQHrJjKfjEpbAgzBq-35">
          <mxGeometry relative="1" as="geometry">
            <mxPoint x="952.7372506618312" y="777.3762333330134" as="sourcePoint" />
          </mxGeometry>
        </mxCell>
        <mxCell id="NhvpQHrJjKfjEpbAgzBq-37" value="số&lt;br/&gt;lượng tồn&amp;nbsp;" style="ellipse;whiteSpace=wrap;html=1;" vertex="1" parent="1">
          <mxGeometry x="940" y="868" width="140" height="70" as="geometry" />
        </mxCell>
        <mxCell id="NhvpQHrJjKfjEpbAgzBq-38" value="Đơn giá" style="ellipse;whiteSpace=wrap;html=1;" vertex="1" parent="1">
          <mxGeometry x="1029" y="798" width="140" height="70" as="geometry" />
        </mxCell>
        <mxCell id="NhvpQHrJjKfjEpbAgzBq-40" value="ngày&lt;br/&gt;nhập kho" style="ellipse;whiteSpace=wrap;html=1;fillColor=#d5e8d4;strokeColor=#82b366;" vertex="1" parent="1">
          <mxGeometry x="1010" y="648" width="140" height="70" as="geometry" />
        </mxCell>
        <mxCell id="NhvpQHrJjKfjEpbAgzBq-41" value="nhà&lt;br/&gt;sản xuất&amp;nbsp;" style="ellipse;whiteSpace=wrap;html=1;fillColor=#d5e8d4;strokeColor=#82b366;" vertex="1" parent="1">
          <mxGeometry x="770" y="630" width="140" height="70" as="geometry" />
        </mxCell>
        <mxCell id="NhvpQHrJjKfjEpbAgzBq-42" style="rounded=0;orthogonalLoop=1;jettySize=auto;html=1;" edge="1" parent="1" source="NhvpQHrJjKfjEpbAgzBq-47" target="NhvpQHrJjKfjEpbAgzBq-48">
          <mxGeometry relative="1" as="geometry" />
        </mxCell>
        <mxCell id="NhvpQHrJjKfjEpbAgzBq-43" style="rounded=0;orthogonalLoop=1;jettySize=auto;html=1;" edge="1" parent="1" source="NhvpQHrJjKfjEpbAgzBq-47" target="NhvpQHrJjKfjEpbAgzBq-51">
          <mxGeometry relative="1" as="geometry" />
        </mxCell>
        <mxCell id="NhvpQHrJjKfjEpbAgzBq-44" style="rounded=0;orthogonalLoop=1;jettySize=auto;html=1;" edge="1" parent="1" source="NhvpQHrJjKfjEpbAgzBq-47" target="NhvpQHrJjKfjEpbAgzBq-52">
          <mxGeometry relative="1" as="geometry" />
        </mxCell>
        <mxCell id="NhvpQHrJjKfjEpbAgzBq-45" style="rounded=0;orthogonalLoop=1;jettySize=auto;html=1;" edge="1" parent="1" source="NhvpQHrJjKfjEpbAgzBq-47" target="NhvpQHrJjKfjEpbAgzBq-54">
          <mxGeometry relative="1" as="geometry" />
        </mxCell>
        <mxCell id="NhvpQHrJjKfjEpbAgzBq-46" style="rounded=0;orthogonalLoop=1;jettySize=auto;html=1;" edge="1" parent="1" source="NhvpQHrJjKfjEpbAgzBq-47" target="NhvpQHrJjKfjEpbAgzBq-53">
          <mxGeometry relative="1" as="geometry" />
        </mxCell>
        <mxCell id="NhvpQHrJjKfjEpbAgzBq-47" value="Entity Object&lt;br&gt;Hàng điện máy" style="ellipse;shape=umlEntity;whiteSpace=wrap;html=1;" vertex="1" parent="1">
          <mxGeometry x="1780" y="750" width="80" height="80" as="geometry" />
        </mxCell>
        <mxCell id="NhvpQHrJjKfjEpbAgzBq-48" value="mã&lt;br/&gt;hàng&amp;nbsp;" style="ellipse;whiteSpace=wrap;html=1;" vertex="1" parent="1">
          <mxGeometry x="1590" y="886" width="140" height="70" as="geometry" />
        </mxCell>
        <mxCell id="NhvpQHrJjKfjEpbAgzBq-49" value="tên&lt;br/&gt;hàng" style="ellipse;whiteSpace=wrap;html=1;" vertex="1" parent="1">
          <mxGeometry x="1750" y="886" width="140" height="70" as="geometry" />
        </mxCell>
        <mxCell id="NhvpQHrJjKfjEpbAgzBq-50" style="rounded=0;orthogonalLoop=1;jettySize=auto;html=1;" edge="1" parent="1" source="NhvpQHrJjKfjEpbAgzBq-47" target="NhvpQHrJjKfjEpbAgzBq-49">
          <mxGeometry relative="1" as="geometry">
            <mxPoint x="1902.7372506618312" y="795.3762333330134" as="sourcePoint" />
          </mxGeometry>
        </mxCell>
        <mxCell id="NhvpQHrJjKfjEpbAgzBq-51" value="số&lt;br/&gt;lượng tồn&amp;nbsp;" style="ellipse;whiteSpace=wrap;html=1;" vertex="1" parent="1">
          <mxGeometry x="1890" y="886" width="140" height="70" as="geometry" />
        </mxCell>
        <mxCell id="NhvpQHrJjKfjEpbAgzBq-52" value="Đơn giá" style="ellipse;whiteSpace=wrap;html=1;" vertex="1" parent="1">
          <mxGeometry x="1979" y="816" width="140" height="70" as="geometry" />
        </mxCell>
        <mxCell id="NhvpQHrJjKfjEpbAgzBq-53" value="công suất" style="ellipse;whiteSpace=wrap;html=1;fillColor=#fff2cc;strokeColor=#d6b656;" vertex="1" parent="1">
          <mxGeometry x="1960" y="666" width="140" height="70" as="geometry" />
        </mxCell>
        <mxCell id="NhvpQHrJjKfjEpbAgzBq-54" value="thời gian bảo hành" style="ellipse;whiteSpace=wrap;html=1;fillColor=#fff2cc;strokeColor=#d6b656;" vertex="1" parent="1">
          <mxGeometry x="1720" y="648" width="140" height="70" as="geometry" />
        </mxCell>
        <mxCell id="NhvpQHrJjKfjEpbAgzBq-55" value="HangThucPham" style="swimlane;fontStyle=1;align=center;verticalAlign=top;childLayout=stackLayout;horizontal=1;startSize=26;horizontalStack=0;resizeParent=1;resizeParentMax=0;resizeLast=0;collapsible=1;marginBottom=0;whiteSpace=wrap;html=1;" vertex="1" parent="1">
          <mxGeometry x="1210" y="366" width="206" height="124" as="geometry" />
        </mxCell>
        <mxCell id="NhvpQHrJjKfjEpbAgzBq-56" value="&lt;b&gt;+ ngaySX: java.util.Date&lt;br&gt;+ ngayHetHan: java.util.Date&lt;br&gt;+ nhaCungCap: String&lt;/b&gt;" style="text;strokeColor=none;fillColor=none;align=left;verticalAlign=top;spacingLeft=4;spacingRight=4;overflow=hidden;rotatable=0;points=[[0,0.5],[1,0.5]];portConstraint=eastwest;whiteSpace=wrap;html=1;" vertex="1" parent="NhvpQHrJjKfjEpbAgzBq-55">
          <mxGeometry y="26" width="206" height="64" as="geometry" />
        </mxCell>
        <mxCell id="NhvpQHrJjKfjEpbAgzBq-57" value="" style="line;strokeWidth=1;fillColor=none;align=left;verticalAlign=middle;spacingTop=-1;spacingLeft=3;spacingRight=3;rotatable=0;labelPosition=right;points=[];portConstraint=eastwest;strokeColor=inherit;" vertex="1" parent="NhvpQHrJjKfjEpbAgzBq-55">
          <mxGeometry y="90" width="206" height="8" as="geometry" />
        </mxCell>
        <mxCell id="NhvpQHrJjKfjEpbAgzBq-58" value="+ tinhVAT(): void&lt;br&gt;" style="text;strokeColor=none;fillColor=none;align=left;verticalAlign=top;spacingLeft=4;spacingRight=4;overflow=hidden;rotatable=0;points=[[0,0.5],[1,0.5]];portConstraint=eastwest;whiteSpace=wrap;html=1;" vertex="1" parent="NhvpQHrJjKfjEpbAgzBq-55">
          <mxGeometry y="98" width="206" height="26" as="geometry" />
        </mxCell>
        <mxCell id="NhvpQHrJjKfjEpbAgzBq-60" value="HangSanhSu" style="swimlane;fontStyle=1;align=center;verticalAlign=top;childLayout=stackLayout;horizontal=1;startSize=26;horizontalStack=0;resizeParent=1;resizeParentMax=0;resizeLast=0;collapsible=1;marginBottom=0;whiteSpace=wrap;html=1;" vertex="1" parent="1">
          <mxGeometry x="1684" y="366" width="206" height="104" as="geometry" />
        </mxCell>
        <mxCell id="NhvpQHrJjKfjEpbAgzBq-61" value="&lt;b&gt;+ ngayNhapKho: java.util.Date&lt;br&gt;+ nhaSanXuat: String&lt;/b&gt;" style="text;strokeColor=none;fillColor=none;align=left;verticalAlign=top;spacingLeft=4;spacingRight=4;overflow=hidden;rotatable=0;points=[[0,0.5],[1,0.5]];portConstraint=eastwest;whiteSpace=wrap;html=1;" vertex="1" parent="NhvpQHrJjKfjEpbAgzBq-60">
          <mxGeometry y="26" width="206" height="44" as="geometry" />
        </mxCell>
        <mxCell id="NhvpQHrJjKfjEpbAgzBq-62" value="" style="line;strokeWidth=1;fillColor=none;align=left;verticalAlign=middle;spacingTop=-1;spacingLeft=3;spacingRight=3;rotatable=0;labelPosition=right;points=[];portConstraint=eastwest;strokeColor=inherit;" vertex="1" parent="NhvpQHrJjKfjEpbAgzBq-60">
          <mxGeometry y="70" width="206" height="8" as="geometry" />
        </mxCell>
        <mxCell id="NhvpQHrJjKfjEpbAgzBq-63" value="+ tinhVAT(): void&lt;br&gt;" style="text;strokeColor=none;fillColor=none;align=left;verticalAlign=top;spacingLeft=4;spacingRight=4;overflow=hidden;rotatable=0;points=[[0,0.5],[1,0.5]];portConstraint=eastwest;whiteSpace=wrap;html=1;" vertex="1" parent="NhvpQHrJjKfjEpbAgzBq-60">
          <mxGeometry y="78" width="206" height="26" as="geometry" />
        </mxCell>
        <mxCell id="NhvpQHrJjKfjEpbAgzBq-64" value="HangDienMay" style="swimlane;fontStyle=1;align=center;verticalAlign=top;childLayout=stackLayout;horizontal=1;startSize=26;horizontalStack=0;resizeParent=1;resizeParentMax=0;resizeLast=0;collapsible=1;marginBottom=0;whiteSpace=wrap;html=1;" vertex="1" parent="1">
          <mxGeometry x="1457" y="368" width="206" height="104" as="geometry" />
        </mxCell>
        <mxCell id="NhvpQHrJjKfjEpbAgzBq-65" value="&lt;b&gt;+ thoiGianBH: java.util.Date&lt;br&gt;+ congSuat: int&lt;/b&gt;" style="text;strokeColor=none;fillColor=none;align=left;verticalAlign=top;spacingLeft=4;spacingRight=4;overflow=hidden;rotatable=0;points=[[0,0.5],[1,0.5]];portConstraint=eastwest;whiteSpace=wrap;html=1;" vertex="1" parent="NhvpQHrJjKfjEpbAgzBq-64">
          <mxGeometry y="26" width="206" height="44" as="geometry" />
        </mxCell>
        <mxCell id="NhvpQHrJjKfjEpbAgzBq-66" value="" style="line;strokeWidth=1;fillColor=none;align=left;verticalAlign=middle;spacingTop=-1;spacingLeft=3;spacingRight=3;rotatable=0;labelPosition=right;points=[];portConstraint=eastwest;strokeColor=inherit;" vertex="1" parent="NhvpQHrJjKfjEpbAgzBq-64">
          <mxGeometry y="70" width="206" height="8" as="geometry" />
        </mxCell>
        <mxCell id="NhvpQHrJjKfjEpbAgzBq-67" value="+ tinhVAT(): void&lt;br&gt;" style="text;strokeColor=none;fillColor=none;align=left;verticalAlign=top;spacingLeft=4;spacingRight=4;overflow=hidden;rotatable=0;points=[[0,0.5],[1,0.5]];portConstraint=eastwest;whiteSpace=wrap;html=1;" vertex="1" parent="NhvpQHrJjKfjEpbAgzBq-64">
          <mxGeometry y="78" width="206" height="26" as="geometry" />
        </mxCell>
        <mxCell id="NhvpQHrJjKfjEpbAgzBq-68" value="Extends" style="endArrow=block;endSize=16;endFill=0;html=1;rounded=0;" edge="1" parent="1" source="NhvpQHrJjKfjEpbAgzBq-55" target="NhvpQHrJjKfjEpbAgzBq-5">
          <mxGeometry width="160" relative="1" as="geometry">
            <mxPoint x="1070" y="500" as="sourcePoint" />
            <mxPoint x="1230" y="500" as="targetPoint" />
          </mxGeometry>
        </mxCell>
        <mxCell id="NhvpQHrJjKfjEpbAgzBq-69" value="Extends" style="endArrow=block;endSize=16;endFill=0;html=1;rounded=0;" edge="1" parent="1" source="NhvpQHrJjKfjEpbAgzBq-64" target="NhvpQHrJjKfjEpbAgzBq-5">
          <mxGeometry width="160" relative="1" as="geometry">
            <mxPoint x="1423" y="395" as="sourcePoint" />
            <mxPoint x="1553" y="310" as="targetPoint" />
          </mxGeometry>
        </mxCell>
        <mxCell id="NhvpQHrJjKfjEpbAgzBq-70" value="Extends" style="endArrow=block;endSize=16;endFill=0;html=1;rounded=0;" edge="1" parent="1" source="NhvpQHrJjKfjEpbAgzBq-60" target="NhvpQHrJjKfjEpbAgzBq-5">
          <mxGeometry width="160" relative="1" as="geometry">
            <mxPoint x="1571" y="378" as="sourcePoint" />
            <mxPoint x="1572" y="310" as="targetPoint" />
          </mxGeometry>
        </mxCell>
        <mxCell id="NhvpQHrJjKfjEpbAgzBq-71" value="VAT = 10%*donGia" style="html=1;whiteSpace=wrap;" vertex="1" parent="1">
          <mxGeometry x="1503" y="490" width="120" height="50" as="geometry" />
        </mxCell>
        <mxCell id="NhvpQHrJjKfjEpbAgzBq-72" value="VAT = 10%*donGia" style="html=1;whiteSpace=wrap;" vertex="1" parent="1">
          <mxGeometry x="1720" y="500" width="140" height="50" as="geometry" />
        </mxCell>
        <mxCell id="NhvpQHrJjKfjEpbAgzBq-73" value="VAT = 5%*donGia" style="html=1;whiteSpace=wrap;" vertex="1" parent="1">
          <mxGeometry x="1230" y="510" width="110" height="50" as="geometry" />
        </mxCell>
      </root>
    </mxGraphModel>
  </diagram>
</mxfile>
